<svg xmlns="http://www.w3.org/2000/svg" width="32.15" height="33.06" viewBox="0 0 32.15 33.06">
  <defs>
    <style>
      .cls-1 {
        fill: #fff;
        fill-rule: evenodd;
      }
    </style>
  </defs>
  <path id="Forma_1" data-name="Forma 1" class="cls-1" d="M1298.1,2047.28l-1.14-.66a14.541,14.541,0,0,0,.28-2.84,14.318,14.318,0,0,0-.28-2.84l1.14-.66a1.531,1.531,0,0,0,.55-2.08l-3.1-5.38a1.529,1.529,0,0,0-2.08-.56l-1.14.66a14.549,14.549,0,0,0-4.92-2.85v-1.31a1.532,1.532,0,0,0-1.52-1.52h-6.22a1.526,1.526,0,0,0-1.52,1.52v1.31a14.6,14.6,0,0,0-4.92,2.86l-1.14-.67a1.557,1.557,0,0,0-1.16-.15,1.528,1.528,0,0,0-.92.71l-3.11,5.38a1.557,1.557,0,0,0-.15,1.16,1.528,1.528,0,0,0,.71.92l1.14,0.66a14.562,14.562,0,0,0-.29,2.84,14.331,14.331,0,0,0,.29,2.84l-1.14.66a1.522,1.522,0,0,0-.56,2.08l3.11,5.38a1.531,1.531,0,0,0,2.08.56l1.14-.66a14.549,14.549,0,0,0,4.92,2.85v1.31a1.526,1.526,0,0,0,1.52,1.52h6.22a1.532,1.532,0,0,0,1.52-1.52v-1.31a14.7,14.7,0,0,0,4.91-2.85l1.15,0.66a1.533,1.533,0,0,0,2.08-.56l3.1-5.38A1.528,1.528,0,0,0,1298.1,2047.28Zm-0.29,1.59-3.1,5.38a0.547,0.547,0,0,1-.76.2l-1.45-.83a0.484,0.484,0,0,0-.57.06,13.462,13.462,0,0,1-5.15,2.99,0.483,0.483,0,0,0-.34.47v1.66a0.555,0.555,0,0,1-.55.55h-6.22a0.555,0.555,0,0,1-.55-0.55v-1.66a0.5,0.5,0,0,0-.34-0.47,13.587,13.587,0,0,1-5.16-2.98,0.46,0.46,0,0,0-.33-0.13,0.475,0.475,0,0,0-.24.06l-1.45.83a0.536,0.536,0,0,1-.75-0.2l-3.11-5.38a0.547,0.547,0,0,1,.21-0.75l1.44-.83a0.491,0.491,0,0,0,.23-0.53,13.689,13.689,0,0,1-.34-2.98,13.9,13.9,0,0,1,.34-2.98,0.477,0.477,0,0,0-.23-0.53l-1.44-.83a0.537,0.537,0,0,1-.26-0.33,0.549,0.549,0,0,1,.05-0.42l3.11-5.38a0.531,0.531,0,0,1,.34-0.26,0.493,0.493,0,0,1,.41.06l1.45,0.83a0.48,0.48,0,0,0,.57-0.06,13.575,13.575,0,0,1,5.16-2.99,0.5,0.5,0,0,0,.34-0.47v-1.66a0.555,0.555,0,0,1,.55-0.55h6.22a0.555,0.555,0,0,1,.55.55v1.66a0.483,0.483,0,0,0,.34.47,13.662,13.662,0,0,1,5.16,2.98,0.486,0.486,0,0,0,.57.07l1.44-.83a0.522,0.522,0,0,1,.42-0.06,0.586,0.586,0,0,1,.34.26l3.1,5.38a0.511,0.511,0,0,1,.06.42,0.537,0.537,0,0,1-.26.33l-1.44.83a0.491,0.491,0,0,0-.23.53,13.676,13.676,0,0,1,.33,2.98,13.294,13.294,0,0,1-.34,2.98,0.506,0.506,0,0,0,.23.53l1.45,0.83A0.553,0.553,0,0,1,1297.81,2048.87Zm-15.03-14.9a9.81,9.81,0,1,0,9.8,9.81A9.82,9.82,0,0,0,1282.78,2033.97Zm0,18.64a8.83,8.83,0,1,1,8.83-8.83A8.847,8.847,0,0,1,1282.78,2052.61Zm1.81-11.39h-1.81a0.491,0.491,0,0,0-.49.49v4.14a0.491,0.491,0,0,0,.49.49,0.482,0.482,0,0,0,.48-0.49v-1.07h1.33A1.78,1.78,0,1,0,1284.59,2041.22Zm0,2.59h-1.33v-1.62h1.33A0.81,0.81,0,0,1,1284.59,2043.81Zm-4.46-2.27a0.5,0.5,0,0,0-.46-0.32h-0.52a0.485,0.485,0,0,0-.45.32l-1.55,4.14a0.487,0.487,0,0,0,.28.63,0.5,0.5,0,0,0,.63-0.29l0.27-.72h2.17l0.27,0.72a0.484,0.484,0,0,0,.46.32,0.555,0.555,0,0,0,.17-0.03,0.5,0.5,0,0,0,.28-0.63Zm-1.44,2.79,0.72-1.93,0.73,1.93h-1.45Zm8.75-3.11a0.491,0.491,0,0,0-.49.49v4.14a0.491,0.491,0,0,0,.49.49,0.482,0.482,0,0,0,.48-0.49v-4.14A0.482,0.482,0,0,0,1287.44,2041.22Zm-1.19-8.33c0.34,0.11.67,0.24,1,.37a0.433,0.433,0,0,0,.19.04,0.483,0.483,0,0,0,.19-0.93c-0.35-.15-0.72-0.28-1.08-0.4a0.486,0.486,0,0,0-.61.31A0.478,0.478,0,0,0,1286.25,2032.89Zm-13.51,16.35a0.486,0.486,0,1,0-.85.47c0.2,0.37.43,0.73,0.66,1.08a0.517,0.517,0,0,0,.4.21,0.49,0.49,0,0,0,.28-0.09,0.472,0.472,0,0,0,.12-0.67C1273.13,2049.92,1272.93,2049.58,1272.74,2049.24Zm9.04,5.92a11.415,11.415,0,0,1-6.95-3.17,0.477,0.477,0,0,0-.68.01,0.468,0.468,0,0,0,.01.68,12.433,12.433,0,0,0,7.54,3.45h0.04A0.486,0.486,0,0,0,1281.78,2055.16Zm7.98-21.62a0.483,0.483,0,0,0-.67.13,0.474,0.474,0,0,0,.13.67,11.482,11.482,0,0,1,4.59,6.46,0.481,0.481,0,0,0,.47.36,0.5,0.5,0,0,0,.12-0.02,0.483,0.483,0,0,0,.35-0.59A12.407,12.407,0,0,0,1289.76,2033.54Z" transform="translate(-1266.69 -2027.25)"/>
</svg>
