<svg xmlns="http://www.w3.org/2000/svg" width="29.407" height="34.6" viewBox="0 0 29.407 34.6">
  <defs>
    <style>
      .cls-1 {
        fill: #fff;
        fill-rule: evenodd;
      }
    </style>
  </defs>
  <path id="Forma_1" data-name="Forma 1" class="cls-1" d="M983.689,2243.09c-5.179-2.49-13.952-2.78-14.34-2.78-0.368,0-9.141.29-14.32,2.78a0.657,0.657,0,0,0-.375.59v14.15c0,0.43.263,10.7,14.478,16.99a0.7,0.7,0,0,0,.533,0c14.162-6.29,14.393-16.57,14.4-17v-14.14A0.659,0.659,0,0,0,983.689,2243.09Zm-0.941,14.72c0,0.1-.244,9.73-13.4,15.69-13.1-5.92-13.392-15.29-13.4-15.68V2244.1c4.844-2.16,12.945-2.47,13.4-2.48s8.555,0.32,13.4,2.48v13.71Zm-2.165-11.63c-4.054-1.97-10.9-2.17-11.188-2.17h-0.046c-0.309,0-7.16.22-11.188,2.17h0a0.661,0.661,0,0,0-.375.59v11c0,0.34.211,8.42,11.319,13.35a0.705,0.705,0,0,0,.534,0c11.115-4.93,11.319-13.01,11.319-13.35v-10.99A0.664,0.664,0,0,0,980.583,2246.18Zm-0.935,11.58c0,0.3-.237,7.47-10.273,12.04-10.036-4.61-10.266-11.74-10.273-12.03V2247.2c3.752-1.63,9.872-1.86,10.273-1.88s6.5,0.25,10.247,1.88l0.026-.01v10.57Zm-5.416-4.88H973.9a4.659,4.659,0,0,0-9.213,0h-0.2a1.31,1.31,0,0,0-1.317,1.31v6.69a1.317,1.317,0,0,0,1.3,1.31h9.766a1.315,1.315,0,0,0,1.316-1.31v-6.69A1.309,1.309,0,0,0,974.232,2252.88Zm-4.946-2.69a3.349,3.349,0,0,1,3.288,2.69h-6.581A3.353,3.353,0,0,1,969.286,2250.19Zm4.946,10.69h-9.766v-6.69h9.766v6.69Zm-4.883-5.13a0.662,0.662,0,0,0-.658.66v2.25a0.658,0.658,0,1,0,1.316,0v-2.25A0.662,0.662,0,0,0,969.349,2255.75Z" transform="translate(-954.656 -2240.31)"/>
</svg>
