<?xml version="1.0" encoding="utf-8"?>
<!-- Generator: Adobe Illustrator 15.0.2, SVG Export Plug-In  -->
<!DOCTYPE svg PUBLIC "-//W3C//DTD SVG 1.1//EN" "http://www.w3.org/Graphics/SVG/1.1/DTD/svg11.dtd" [
	<!ENTITY ns_flows "http://ns.adobe.com/Flows/1.0/">
]>
<svg version="1.1"
	 xmlns="http://www.w3.org/2000/svg" xmlns:xlink="http://www.w3.org/1999/xlink" xmlns:a="http://ns.adobe.com/AdobeSVGViewerExtensions/3.0/"
	 x="0px" y="0px" width="200px" height="35px" viewBox="-0.4287109 -0.4560547 369 64"
	 enable-background="new -0.4287109 -0.4560547 369 64" xml:space="preserve">
<defs>
</defs>
<polygon fill="#018CF1" points="4.9868164,62.7163086 0,62.7163086 33.4140625,5.0849609 38.4008789,5.0849609 "/>
<polygon fill="#018CF1" points="19.6650391,62.7163086 14.6796875,62.7163086 44.1796875,11.8364258 49.1665039,11.8364258 "/>
<polygon fill="#018CF1" points="34.3466797,62.7163086 29.3598633,62.7163086 44.8461914,36.0068359 49.8310547,36.0068359 "/>
<polygon fill="#018CF1" points="49.0263672,62.7163086 44.0415039,62.7163086 69.9091797,18.0961914 74.8959961,18.0961914 "/>
<polygon fill="#018CF1" points="63.706543,62.7163086 58.7197266,62.7163086 74.2060547,36.0068359 79.1914063,36.0068359 "/>
<path fill="#018CF1" d="M96.6152344,61.6723633c-2.0473633-0.8579102-3.6464844-1.9677734-4.7949219-3.3286133l1.0170898-1.8461914
	c1.0888672,1.2631836,2.5546875,2.2919922,4.3964844,3.0854492c1.840332,0.7944336,3.777832,1.1904297,5.8110352,1.1904297
	c2.9443359,0,5.1694336-0.6152344,6.6723633-1.8461914c1.5014648-1.2314453,2.253418-2.8344727,2.253418-4.8110352
	c0-1.5219727-0.3969727-2.7373047-1.1933594-3.6450195c-0.7958984-0.9057617-1.7832031-1.6035156-2.9599609-2.0888672
	c-1.1791992-0.4858398-2.769043-0.9882813-4.7724609-1.5068359c-2.269043-0.6142578-4.0878906-1.2143555-5.4580078-1.7978516
	c-1.3686523-0.5830078-2.5332031-1.4819336-3.4907227-2.6972656c-0.9570313-1.2143555-1.4360352-2.8422852-1.4360352-4.8837891
	c0-1.6518555,0.3974609-3.1660156,1.1933594-4.543457c0.7958984-1.3764648,2.0102539-2.4692383,3.6445313-3.2792969
	c1.6362305-0.8095703,3.6748047-1.215332,6.1210938-1.215332c1.7075195,0,3.3876953,0.2753906,5.0366211,0.8261719
	c1.6503906,0.5512695,3.0791016,1.2958984,4.2861328,2.2353516l-0.8383789,1.9926758
	c-1.2373047-0.9399414-2.6005859-1.6523438-4.0878906-2.1381836c-1.4873047-0.4863281-2.953125-0.7294922-4.3964844-0.7294922
	c-2.8574219,0-5.0239258,0.6318359-6.4951172,1.8950195c-1.4746094,1.2641602-2.2104492,2.9003906-2.2104492,4.9086914
	c0,1.5229492,0.3989258,2.7382813,1.1928711,3.644043c0.7958984,0.9077148,1.7817383,1.6040039,2.9604492,2.0898438
	c1.1791992,0.4858398,2.7851563,1.0043945,4.8164063,1.5546875c2.269043,0.6162109,4.0810547,1.215332,5.4355469,1.7983398
	c1.355957,0.5834961,2.5117188,1.4663086,3.4692383,2.6484375c0.9570313,1.1826172,1.4355469,2.777832,1.4355469,4.7866211
	c0,1.6518555-0.4042969,3.1582031-1.2143555,4.5185547c-0.8100586,1.3608398-2.0541992,2.4462891-3.7348633,3.2563477
	c-1.6787109,0.8105469-3.7407227,1.2143555-6.1850586,1.2143555C100.8203125,62.9599609,98.6625977,62.53125,96.6152344,61.6723633z
	"/>
<path fill="#018CF1" d="M151.1210938,62.7172852l-0.0439453-29.1083984l-12.9482422,24.5888672h-1.1044922L124.0761719,33.706543
	v29.0107422h-2.2080078V28.7011719h1.9003906l13.8300781,26.2895508l13.8310547-26.2895508h1.8564453l0.0439453,34.0161133
	H151.1210938z"/>
<path fill="#018CF1" d="M183.2480469,53.1445313h-17.9414063L161.375,62.7172852h-2.4306641l14.2275391-34.0161133h2.2539063
	l14.2294922,34.0161133h-2.4306641L183.2480469,53.1445313z M182.4082031,51.0546875l-8.1318359-19.6323242l-8.0849609,19.6323242
	H182.4082031z"/>
<path fill="#018CF1" d="M216.7421875,62.7172852l-7.3798828-11.3710938
	c-1.0898438,0.1630859-2.0917969,0.2426758-3.0048828,0.2426758h-8.8388672v11.128418h-2.2529297V28.7011719h11.0917969
	c3.8876953,0,6.9365234,1.0131836,9.1474609,3.0375977c2.2089844,2.0244141,3.3134766,4.8349609,3.3134766,8.4311523
	c0,2.6894531-0.6259766,4.9487305-1.8779297,6.7788086c-1.2529297,1.8305664-3.0419922,3.1181641-5.3691406,3.862793
	l7.7324219,11.9057617H216.7421875z M206.3574219,49.4023438c3.2988281,0,5.8183594-0.8012695,7.5556641-2.4057617
	c1.7392578-1.6035156,2.6074219-3.878418,2.6074219-6.8266602s-0.8681641-5.2241211-2.6074219-6.8276367
	c-1.7373047-1.6035156-4.2568359-2.4057617-7.5556641-2.4057617h-8.8388672v18.4658203H206.3574219z"/>
<path fill="#018CF1" d="M232.5605469,30.9365234h-11.1347656v-2.2353516h24.5234375v2.2353516h-11.1337891v31.7807617h-2.2548828
	V30.9365234z"/>
<path d="M273.7871094,33.1958008c2.9755859,2.965332,4.4638672,7.0874023,4.4638672,12.3676758
	c0,5.2807617-1.4433594,9.4599609-4.3310547,12.5375977s-7.3056641,4.6162109-13.2568359,4.6162109h-10.2519531V28.75h10.6044922
	C266.5537109,28.75,270.8125,30.2319336,273.7871094,33.1958008z M272.9921875,45.7094727
	c0-7.7749023-4.0498047-11.6625977-12.1513672-11.6625977H255.625v23.2768555h5.7900391
	c3.7402344,0,6.6054688-0.9804688,8.59375-2.9399414C271.9980469,52.4238281,272.9921875,49.5327148,272.9921875,45.7094727z"/>
<path d="M289.3427734,54.9907227l-3.09375,7.7265625h-5.5683594L294.2919922,28.75h5.5664063l13.6113281,33.9672852h-5.5683594
	l-3.09375-7.7265625H289.3427734z M302.6875,49.6938477l-5.6123047-13.9946289l-5.6123047,13.9946289H302.6875z"/>
<path d="M326.9912109,33.9980469v28.7192383h-5.2148438V33.9980469h-9.3671875V28.75h23.9492188v5.2480469H326.9912109z"/>
<path d="M343.9599609,54.9907227l-3.09375,7.7265625h-5.5673828L348.9091797,28.75h5.5664063l13.6113281,33.9672852h-5.5683594
	l-3.0927734-7.7265625H343.9599609z M357.3056641,49.6938477l-5.6132813-13.9946289l-5.6123047,13.9946289H357.3056641z"/>
<circle fill="#018CF1" cx="36.1608887" cy="3.9335938" r="3.9338379"/>
<circle fill="#018CF1" cx="46.4648438" cy="11.8364258" r="3.9335938"/>
<circle fill="#018CF1" cx="47.0322266" cy="36.0078125" r="3.9335938"/>
<circle fill="#018CF1" cx="71.8398438" cy="18.0961914" r="3.9335938"/>
<circle fill="#018CF1" cx="76.831543" cy="36.0078125" r="3.9335938"/>
</svg>
