<svg xmlns="http://www.w3.org/2000/svg" width="46.5" height="46.532" viewBox="0 0 46.5 46.532">
  <defs>
    <style>
      .cls-1 {
        fill: #baccd9;
        fill-rule: evenodd;
      }
    </style>
  </defs>
  <path id="Forma_1" data-name="Forma 1" class="cls-1" d="M1381.01,838.919h0.02a0.782,0.782,0,0,0,.78-0.75,21.7,21.7,0,0,1,35.12-16.306h-4.13a0.776,0.776,0,0,0,0,1.552h6.21a0.821,0.821,0,0,0,.18-0.036,0.858,0.858,0,0,0,.12-0.026,0.7,0.7,0,0,0,.06-0.04,0.815,0.815,0,0,0,.19-0.133l0.01,0c0.02-.027.03-0.055,0.05-0.085a0.915,0.915,0,0,0,.1-0.162,1.222,1.222,0,0,0,.04-0.191c0.01-.032.01-0.065,0.02-0.1v-6.206a0.775,0.775,0,1,0-1.55,0v4.493a23.249,23.249,0,0,0-37.97,17.191A0.773,0.773,0,0,0,1381.01,838.919Zm6.27,14.446a0.776,0.776,0,1,0-1.16,1.031,23.146,23.146,0,0,0,1.69,1.713,0.774,0.774,0,0,0,1.04-1.145C1388.3,854.459,1387.78,853.925,1387.28,853.365Zm9.25,6.143a21.443,21.443,0,0,1-2.08-.829,0.776,0.776,0,0,0-.69,1.39c0.01,0.006.03,0.013,0.04,0.018a23.2,23.2,0,0,0,2.24.891A0.775,0.775,0,1,0,1396.53,859.508Zm-4.07-1.872h0c-0.64-.382-1.27-0.8-1.87-1.241a0.775,0.775,0,1,0-.96,1.218,0.122,0.122,0,0,0,.04.029,22.824,22.824,0,0,0,2,1.33A0.776,0.776,0,0,0,1392.46,857.636Zm-6.58-6.021a20.8,20.8,0,0,1-1.22-1.888,0.774,0.774,0,1,0-1.34.776,23.248,23.248,0,0,0,1.3,2.018A0.776,0.776,0,0,0,1385.88,851.615Zm-2.16-3.57a0.849,0.849,0,0,0-.07-0.314v0a19.8,19.8,0,0,1-.8-2.1,0.777,0.777,0,1,0-1.5.408c0.01,0.024.01,0.048,0.02,0.071,0.25,0.764.54,1.515,0.86,2.25A0.779,0.779,0,0,0,1383.72,848.045Zm-2.05-3.665h0a0.783,0.783,0,0,0,.6-0.919,18.533,18.533,0,0,1-.35-2.218,0.779,0.779,0,0,0-1.55.164,23.854,23.854,0,0,0,.38,2.375A0.776,0.776,0,0,0,1381.67,844.38Zm43.85-.792h0a0.773,0.773,0,0,0-.94.566c-0.18.728-.4,1.445-0.65,2.15a0.771,0.771,0,1,0,1.45.526,20.764,20.764,0,0,0,.7-2.3A0.77,0.77,0,0,0,1425.52,843.588ZM1400.9,860.5a21.62,21.62,0,0,1-2.21-.38,0.776,0.776,0,0,0-.34,1.514,23.178,23.178,0,0,0,2.37.407,0.543,0.543,0,0,0,.09.005A0.775,0.775,0,0,0,1400.9,860.5Zm23.19-12.482h0a0.781,0.781,0,0,0-1.04.36,21.122,21.122,0,0,1-1.08,1.969,0.776,0.776,0,0,0,1.32.816,23.829,23.829,0,0,0,1.16-2.109A0.786,0.786,0,0,0,1424.09,848.013Zm-2.29,4.034a0.775,0.775,0,0,0-1.09.125c-0.01.006-.01,0.011-0.02,0.017h0a19.629,19.629,0,0,1-1.46,1.706,0.778,0.778,0,0,0,1.13,1.07q0.825-.873,1.56-1.827A0.777,0.777,0,0,0,1421.8,852.047Zm4.19-13.081a0.763,0.763,0,0,0-.8.724v0.024c-0.03.748-.09,1.495-0.19,2.237a0.769,0.769,0,0,0,.66.874,0.6,0.6,0,0,0,.11.008,0.771,0.771,0,0,0,.76-0.669,24,24,0,0,0,.21-2.4A0.773,0.773,0,0,0,1425.99,838.966Zm-8.38,16.471v0c-0.57.487-1.17,0.945-1.78,1.371a0.776,0.776,0,1,0,.88,1.279,23.663,23.663,0,0,0,1.91-1.473A0.777,0.777,0,0,0,1417.61,855.437Zm-7.82,4.289h0a22.342,22.342,0,0,1-2.18.535,0.776,0.776,0,0,0,.14,1.538,0.846,0.846,0,0,0,.15-0.014,22.942,22.942,0,0,0,2.34-.574,0.783,0.783,0,0,0,.49-0.98A0.772,0.772,0,0,0,1409.79,859.726Zm-4.36.84-0.05,0,0.01,0c-0.62.052-1.26,0.078-1.89,0.078h-0.35a0.8,0.8,0,0,0-.79.761,0.773,0.773,0,0,0,.76.79h0.38c0.68,0,1.36-.03,2.01-0.087A0.776,0.776,0,0,0,1405.43,860.566Zm8.49-2.577h0c-0.66.359-1.33,0.685-2.02,0.976a0.775,0.775,0,1,0,.58,1.437,0.159,0.159,0,0,0,.02-0.007,22.62,22.62,0,0,0,2.16-1.046A0.774,0.774,0,1,0,1413.92,857.989Zm-10.42-35.35a16.291,16.291,0,1,0,16.28,16.29A16.286,16.286,0,0,0,1403.5,822.639Zm12.4,17.066h2.29a14.725,14.725,0,0,1-13.92,13.924v-2.288a0.77,0.77,0,0,0-.77-0.775,0.778,0.778,0,0,0-.78.775v2.288a14.724,14.724,0,0,1-13.91-13.924h2.29a0.776,0.776,0,0,0,0-1.551h-2.29a14.724,14.724,0,0,1,13.91-13.924v2.288a0.778,0.778,0,0,0,.78.775,0.77,0.77,0,0,0,.77-0.775V824.23a14.725,14.725,0,0,1,13.92,13.924h-2.29A0.776,0.776,0,0,0,1415.9,839.705Zm-11.63-2.96v-7.124a0.77,0.77,0,0,0-.77-0.776,0.778,0.778,0,0,0-.78.776v7.124a2.32,2.32,0,0,0-1.4,1.409h-4.02a0.776,0.776,0,1,0,0,1.551h4.02A2.317,2.317,0,1,0,1404.27,836.745Zm-0.77,2.96a0.776,0.776,0,1,1,0-1.551A0.776,0.776,0,0,1,1403.5,839.705Z" transform="translate(-1380.25 -815.656)"/>
</svg>
