<svg xmlns="http://www.w3.org/2000/svg" width="24.844" height="24.85" viewBox="0 0 24.844 24.85">
  <defs>
    <style>
      .cls-1 {
        fill: #fff;
        fill-rule: evenodd;
      }
    </style>
  </defs>
  <path class="cls-1" d="M981.633,1924.4a1.025,1.025,0,0,0-1.464,0L957.4,1947.17a1.034,1.034,0,1,0,1.464,1.46l22.773-22.77A1.029,1.029,0,0,0,981.633,1924.4Zm-3.837,16.26a4.14,4.14,0,1,0,4.14,4.14A4.138,4.138,0,0,0,977.8,1940.66Zm0,6.21a2.07,2.07,0,1,1,2.07-2.07A2.072,2.072,0,0,1,977.8,1946.87Zm-16.562-14.5a4.14,4.14,0,1,0-4.141-4.14A4.137,4.137,0,0,0,961.234,1932.37Zm0-6.21a2.07,2.07,0,1,1-2.071,2.07A2.072,2.072,0,0,1,961.234,1926.16Z" transform="translate(-957.094 -1924.09)"/>
</svg>
