<svg xmlns="http://www.w3.org/2000/svg" width="28" height="28" viewBox="0 0 28 28">
  <defs>
    <style>
      .cls-1 {
        fill: #fff;
        fill-rule: evenodd;
      }
    </style>
  </defs>
  <path id="Forma_1" data-name="Forma 1" class="cls-1" d="M1276.93,1932.33h-4.2a0.47,0.47,0,0,0,0,.94h4.2A0.47,0.47,0,0,0,1276.93,1932.33Zm-2.8,1.87h-1.4a0.465,0.465,0,0,0,0,.93h1.4A0.465,0.465,0,1,0,1274.13,1934.2Zm2.8,0H1276a0.465,0.465,0,1,0,0,.93h0.93A0.465,0.465,0,1,0,1276.93,1934.2Zm-0.93-3.73h-3.27a0.465,0.465,0,0,0,0,.93H1276A0.465,0.465,0,1,0,1276,1930.47Zm16.8,8.4h-3.73a0.465,0.465,0,1,0,0,.93h3.73A0.465,0.465,0,1,0,1292.8,1938.87Zm-1.87,1.86h-1.86a0.47,0.47,0,0,0,0,.94h1.86A0.47,0.47,0,0,0,1290.93,1940.73Zm1.87-6.06h-3.73a0.465,0.465,0,1,0,0,.93h3.73A0.465,0.465,0,1,0,1292.8,1934.67Zm-1.87,1.86h-1.86a0.47,0.47,0,0,0,0,.94h1.86A0.47,0.47,0,0,0,1290.93,1936.53Zm1.87-6.06h-3.73a0.465,0.465,0,1,0,0,.93h3.73A0.465,0.465,0,1,0,1292.8,1930.47Zm-1.87,1.86h-1.86a0.47,0.47,0,0,0,0,.94h1.86A0.47,0.47,0,0,0,1290.93,1932.33Zm-4.35,3.86a0.462,0.462,0,0,0-.66.03l-3.87,4.3-1.99-1.98a0.453,0.453,0,0,0-.66,0l-2.33,2.33a0.467,0.467,0,1,0,.66.66l2-2,2.01,2a0.476,0.476,0,0,0,.34.14,0.455,0.455,0,0,0,.33-0.16l4.2-4.67A0.45,0.45,0,0,0,1286.58,1936.19Zm-8.89,4.65-2.33-1.87a0.453,0.453,0,0,0-.58,0l-2.34,1.87a0.462,0.462,0,1,0,.58.72l2.05-1.63,2.04,1.63a0.456,0.456,0,0,0,.29.11,0.441,0.441,0,0,0,.36-0.18A0.453,0.453,0,0,0,1277.69,1940.84Zm8.58-4.77h-2.34a0.465,0.465,0,0,0,0,.93h2.34A0.465,0.465,0,0,0,1286.27,1936.07Zm0,0a0.467,0.467,0,0,0-.47.46v2.34a0.465,0.465,0,0,0,.93,0v-2.34A0.465,0.465,0,0,0,1286.27,1936.07Zm-5.14-6.07a2.8,2.8,0,1,0,2.8,2.8A2.808,2.808,0,0,0,1281.13,1930Zm0,4.67a1.87,1.87,0,1,1,1.87-1.87A1.865,1.865,0,0,1,1281.13,1934.67Zm15.4-7.94h-27.06a0.469,0.469,0,0,0-.47.47v17.27a0.467,0.467,0,0,0,.47.46h27.06a0.467,0.467,0,0,0,.47-0.46V1927.2A0.469,0.469,0,0,0,1296.53,1926.73Zm-0.46,17.27h-26.14v-16.33h26.14V1944h0Zm-0.47,0h-25.2a0.469,0.469,0,0,0-.47.47v1.86a0.469,0.469,0,0,0,.47.47h25.2a0.469,0.469,0,0,0,.47-0.47v-1.86A0.469,0.469,0,0,0,1295.6,1944Zm-0.47,1.87h-24.26v-0.94h24.26v0.94h0Zm-4.2-21h-15.86a0.467,0.467,0,0,0-.47.46v1.87a0.469,0.469,0,0,0,.47.47h15.86a0.469,0.469,0,0,0,.47-0.47v-1.87A0.467,0.467,0,0,0,1290.93,1924.87Zm-0.46,1.86h-14.94v-0.93h14.94v0.93h0ZM1283,1923a2.332,2.332,0,0,0-2.33,2.33,0.467,0.467,0,0,0,.46.47h3.74a0.467,0.467,0,0,0,.46-0.47A2.332,2.332,0,0,0,1283,1923Zm-1.32,1.87a1.4,1.4,0,0,1,2.64,0h-2.64Zm9.48,24.23-1.61-2.99a0.463,0.463,0,0,0-.41-0.24h-1.87a0.459,0.459,0,0,0-.41.68l2.03,3.77A1.289,1.289,0,0,0,1291.16,1949.1Zm-0.83.79a0.335,0.335,0,0,1-.31.18,0.362,0.362,0,0,1-.31-0.19l-1.66-3.08h0.81l1.48,2.74A0.366,0.366,0,0,1,1290.33,1949.89Zm-6.4-4.02h-1.86a0.467,0.467,0,0,0-.47.46v3.38a1.293,1.293,0,0,0,1.29,1.29h0.22a1.293,1.293,0,0,0,1.29-1.29v-3.38A0.467,0.467,0,0,0,1283.93,1945.87Zm-0.46,3.84a0.359,0.359,0,0,1-.36.36h-0.22a0.359,0.359,0,0,1-.36-0.36v-2.91h0.94v2.91Zm-4.34-3.62a0.473,0.473,0,0,0-.4-0.22h-1.87a0.463,0.463,0,0,0-.41.24l-1.61,2.99a1.255,1.255,0,0,0,.03,1.27,1.286,1.286,0,0,0,2.24-.05l2.03-3.77A0.471,0.471,0,0,0,1279.13,1946.09Zm-2.84,3.79a0.362,0.362,0,0,1-.31.19,0.353,0.353,0,0,1-.31-0.18,0.366,0.366,0,0,1-.01-0.35l1.48-2.74h0.81Z" transform="translate(-1269 -1923)"/>
</svg>
